<svg xmlns="http://www.w3.org/2000/svg" width="419" height="419" fill="none"><path fill="#000" fill-rule="evenodd" d="m187.605 108.292 58.768 136.749 31.08-71.765-26.559-64.984h-63.289Zm87.021 203.428 86.457-203.428h57.638L332.264 311.72h-57.638ZM28.076 212.266h69.118v-.005c.188.003.376.005.566.005 15.916 0 28.818-12.902 28.818-28.819 0-15.902-12.879-28.796-28.776-28.818h-.085c-.175 0-.35.002-.523.005v-.005H0v-46.337h102.844v.002l.566-.002c45.252 0 81.936 33.395 81.936 74.59 0 27.799-16.705 52.046-41.474 64.876l43.735 63.962h-62.159l-37.229-54.248H57.638v54.248H0v-99.454h28.076Zm64.108 45.206.205.291-.514-.291h.309Z" clip-rule="evenodd"/></svg>